<svg xmlns="http://www.w3.org/2000/svg" xmlns:xlink="http://www.w3.org/1999/xlink" width="329" zoomAndPan="magnify" viewBox="0 0 246.75 60.75" height="81" preserveAspectRatio="xMidYMid meet" version="1.0"><defs><g/><clipPath id="443fbc7e2f"><path d="M 70.121094 14.214844 L 245.945312 14.214844 L 245.945312 46.925781 L 70.121094 46.925781 Z M 70.121094 14.214844 " clip-rule="nonzero"/></clipPath><clipPath id="ee40218b51"><path d="M 86.230469 14.214844 L 229.589844 14.214844 C 238.484375 14.214844 245.695312 21.425781 245.695312 30.320312 C 245.695312 39.214844 238.484375 46.425781 229.589844 46.425781 L 86.230469 46.425781 C 77.332031 46.425781 70.121094 39.214844 70.121094 30.320312 C 70.121094 21.425781 77.332031 14.214844 86.230469 14.214844 " clip-rule="nonzero"/></clipPath></defs><path fill="#038ede" d="M 10.875 52.324219 L 40.40625 52.324219 C 41.765625 52.324219 42.867188 51.222656 42.867188 49.863281 L 42.867188 10.488281 C 42.867188 9.128906 41.765625 8.027344 40.40625 8.027344 L 10.875 8.027344 C 9.515625 8.027344 8.414062 9.128906 8.414062 10.488281 L 8.414062 49.863281 C 8.414062 51.222656 9.515625 52.324219 10.875 52.324219 Z M 40.40625 54.785156 L 10.875 54.785156 C 8.15625 54.785156 5.953125 52.582031 5.953125 49.863281 L 5.953125 10.488281 C 5.953125 7.769531 8.15625 5.5625 10.875 5.5625 L 40.40625 5.5625 C 43.125 5.5625 45.328125 7.769531 45.328125 10.488281 L 45.328125 49.863281 C 45.328125 52.582031 43.125 54.785156 40.40625 54.785156 Z M 40.40625 54.785156 " fill-opacity="1" fill-rule="evenodd"/><path fill="#038ede" d="M 23.179688 16.640625 C 23.179688 15.960938 23.730469 15.410156 24.410156 15.410156 L 39.175781 15.410156 C 39.855469 15.410156 40.40625 15.960938 40.40625 16.640625 C 40.40625 17.320312 39.855469 17.871094 39.175781 17.871094 L 24.410156 17.871094 C 23.730469 17.871094 23.179688 17.320312 23.179688 16.640625 Z M 23.179688 16.640625 " fill-opacity="1" fill-rule="evenodd"/><path fill="#038ede" d="M 23.179688 21.5625 C 23.179688 20.882812 23.730469 20.332031 24.410156 20.332031 L 39.175781 20.332031 C 39.855469 20.332031 40.40625 20.882812 40.40625 21.5625 C 40.40625 22.242188 39.855469 22.792969 39.175781 22.792969 L 24.410156 22.792969 C 23.730469 22.792969 23.179688 22.242188 23.179688 21.5625 Z M 23.179688 21.5625 " fill-opacity="1" fill-rule="evenodd"/><path fill="#038ede" d="M 23.179688 31.40625 C 23.179688 30.726562 23.730469 30.175781 24.410156 30.175781 L 39.175781 30.175781 C 39.855469 30.175781 40.40625 30.726562 40.40625 31.40625 C 40.40625 32.085938 39.855469 32.636719 39.175781 32.636719 L 24.410156 32.636719 C 23.730469 32.636719 23.179688 32.085938 23.179688 31.40625 Z M 23.179688 31.40625 " fill-opacity="1" fill-rule="evenodd"/><path fill="#038ede" d="M 23.179688 36.328125 C 23.179688 35.648438 23.730469 35.097656 24.410156 35.097656 L 39.175781 35.097656 C 39.855469 35.097656 40.40625 35.648438 40.40625 36.328125 C 40.40625 37.007812 39.855469 37.558594 39.175781 37.558594 L 24.410156 37.558594 C 23.730469 37.558594 23.179688 37.007812 23.179688 36.328125 Z M 23.179688 36.328125 " fill-opacity="1" fill-rule="evenodd"/><path fill="#038ede" d="M 13.335938 32.636719 L 13.335938 36.328125 L 17.027344 36.328125 L 17.027344 32.636719 Z M 12.105469 30.175781 L 18.257812 30.175781 C 18.9375 30.175781 19.488281 30.726562 19.488281 31.40625 L 19.488281 37.558594 C 19.488281 38.238281 18.9375 38.789062 18.257812 38.789062 L 12.105469 38.789062 C 11.425781 38.789062 10.875 38.238281 10.875 37.558594 L 10.875 31.40625 C 10.875 30.726562 11.425781 30.175781 12.105469 30.175781 Z M 12.105469 30.175781 " fill-opacity="1" fill-rule="evenodd"/><path fill="#038ede" d="M 20.359375 15.769531 C 20.839844 16.25 20.839844 17.027344 20.359375 17.507812 L 14.566406 23.300781 L 11.234375 19.96875 C 10.753906 19.488281 10.753906 18.710938 11.234375 18.230469 C 11.714844 17.75 12.496094 17.75 12.976562 18.230469 L 14.566406 19.820312 L 18.617188 15.769531 C 19.097656 15.289062 19.878906 15.289062 20.359375 15.769531 Z M 20.359375 15.769531 " fill-opacity="1" fill-rule="evenodd"/><path fill="#038ede" d="M 52.714844 30.175781 L 50.253906 30.175781 L 50.253906 49.042969 L 51.484375 50.683594 L 52.714844 49.042969 Z M 55.175781 49.863281 L 51.484375 54.785156 L 47.792969 49.863281 L 47.792969 27.714844 L 55.175781 27.714844 Z M 55.175781 49.863281 " fill-opacity="1" fill-rule="evenodd"/><path fill="#038ede" d="M 52.714844 21.5625 L 50.253906 21.5625 L 50.253906 24.023438 L 52.714844 24.023438 Z M 50.253906 19.101562 L 52.714844 19.101562 C 54.074219 19.101562 55.175781 20.203125 55.175781 21.5625 L 55.175781 26.484375 L 47.792969 26.484375 L 47.792969 21.5625 C 47.792969 20.203125 48.894531 19.101562 50.253906 19.101562 Z M 50.253906 19.101562 " fill-opacity="1" fill-rule="evenodd"/><g clip-path="url(#443fbc7e2f)"><g clip-path="url(#ee40218b51)"><path fill="#038ede" d="M 70.121094 14.214844 L 245.945312 14.214844 L 245.945312 46.339844 L 70.121094 46.339844 Z M 70.121094 14.214844 " fill-opacity="1" fill-rule="nonzero"/></g></g><g fill="#ffffff" fill-opacity="1"><g transform="translate(83.351469, 37.048665)"><g><path d="M 5.046875 0 C 4.921875 0 4.8125 -0.046875 4.71875 -0.140625 C 4.625 -0.234375 4.578125 -0.34375 4.578125 -0.46875 L 4.578125 -11.390625 L 0.921875 -11.390625 C 0.796875 -11.390625 0.6875 -11.429688 0.59375 -11.515625 C 0.5 -11.609375 0.453125 -11.722656 0.453125 -11.859375 L 0.453125 -13.328125 C 0.453125 -13.460938 0.5 -13.578125 0.59375 -13.671875 C 0.6875 -13.765625 0.796875 -13.8125 0.921875 -13.8125 L 10.984375 -13.8125 C 11.128906 -13.8125 11.25 -13.765625 11.34375 -13.671875 C 11.4375 -13.578125 11.484375 -13.460938 11.484375 -13.328125 L 11.484375 -11.859375 C 11.484375 -11.722656 11.4375 -11.609375 11.34375 -11.515625 C 11.25 -11.429688 11.128906 -11.390625 10.984375 -11.390625 L 7.359375 -11.390625 L 7.359375 -0.46875 C 7.359375 -0.34375 7.3125 -0.234375 7.21875 -0.140625 C 7.125 -0.046875 7.007812 0 6.875 0 Z M 5.046875 0 "/></g></g></g><g fill="#ffffff" fill-opacity="1"><g transform="translate(95.289183, 37.048665)"><g><path d="M 1.796875 0 C 1.660156 0 1.546875 -0.046875 1.453125 -0.140625 C 1.367188 -0.234375 1.328125 -0.34375 1.328125 -0.46875 L 1.328125 -13.53125 C 1.328125 -13.664062 1.367188 -13.78125 1.453125 -13.875 C 1.546875 -13.96875 1.660156 -14.015625 1.796875 -14.015625 L 3.546875 -14.015625 C 3.691406 -14.015625 3.804688 -13.96875 3.890625 -13.875 C 3.984375 -13.78125 4.03125 -13.664062 4.03125 -13.53125 L 4.03125 -9.03125 C 4.382812 -9.457031 4.816406 -9.800781 5.328125 -10.0625 C 5.835938 -10.320312 6.46875 -10.453125 7.21875 -10.453125 C 8.019531 -10.453125 8.71875 -10.269531 9.3125 -9.90625 C 9.914062 -9.550781 10.378906 -9.046875 10.703125 -8.390625 C 11.035156 -7.734375 11.203125 -6.941406 11.203125 -6.015625 L 11.203125 -0.46875 C 11.203125 -0.34375 11.15625 -0.234375 11.0625 -0.140625 C 10.976562 -0.046875 10.867188 0 10.734375 0 L 8.953125 0 C 8.828125 0 8.71875 -0.046875 8.625 -0.140625 C 8.53125 -0.234375 8.484375 -0.34375 8.484375 -0.46875 L 8.484375 -5.90625 C 8.484375 -6.664062 8.296875 -7.257812 7.921875 -7.6875 C 7.546875 -8.125 7.003906 -8.34375 6.296875 -8.34375 C 5.609375 -8.34375 5.054688 -8.125 4.640625 -7.6875 C 4.234375 -7.257812 4.03125 -6.664062 4.03125 -5.90625 L 4.03125 -0.46875 C 4.03125 -0.34375 3.984375 -0.234375 3.890625 -0.140625 C 3.804688 -0.046875 3.691406 0 3.546875 0 Z M 1.796875 0 "/></g></g></g><g fill="#ffffff" fill-opacity="1"><g transform="translate(107.700463, 37.048665)"><g><path d="M 1.703125 -12.03125 C 1.566406 -12.03125 1.453125 -12.078125 1.359375 -12.171875 C 1.265625 -12.265625 1.21875 -12.378906 1.21875 -12.515625 L 1.21875 -13.9375 C 1.21875 -14.0625 1.265625 -14.171875 1.359375 -14.265625 C 1.453125 -14.359375 1.566406 -14.40625 1.703125 -14.40625 L 3.5 -14.40625 C 3.632812 -14.40625 3.75 -14.359375 3.84375 -14.265625 C 3.9375 -14.171875 3.984375 -14.0625 3.984375 -13.9375 L 3.984375 -12.515625 C 3.984375 -12.378906 3.9375 -12.265625 3.84375 -12.171875 C 3.75 -12.078125 3.632812 -12.03125 3.5 -12.03125 Z M 1.78125 0 C 1.644531 0 1.53125 -0.046875 1.4375 -0.140625 C 1.34375 -0.234375 1.296875 -0.34375 1.296875 -0.46875 L 1.296875 -9.78125 C 1.296875 -9.914062 1.34375 -10.03125 1.4375 -10.125 C 1.53125 -10.21875 1.644531 -10.265625 1.78125 -10.265625 L 3.40625 -10.265625 C 3.550781 -10.265625 3.664062 -10.21875 3.75 -10.125 C 3.84375 -10.03125 3.890625 -9.914062 3.890625 -9.78125 L 3.890625 -0.46875 C 3.890625 -0.34375 3.84375 -0.234375 3.75 -0.140625 C 3.664062 -0.046875 3.550781 0 3.40625 0 Z M 1.78125 0 "/></g></g></g><g fill="#ffffff" fill-opacity="1"><g transform="translate(112.909646, 37.048665)"><g/></g></g><g fill="#ffffff" fill-opacity="1"><g transform="translate(117.428225, 37.048665)"><g><path d="M 5.9375 0 C 5.144531 0 4.476562 -0.132812 3.9375 -0.40625 C 3.40625 -0.6875 3.003906 -1.097656 2.734375 -1.640625 C 2.472656 -2.191406 2.34375 -2.875 2.34375 -3.6875 L 2.34375 -8.171875 L 0.796875 -8.171875 C 0.660156 -8.171875 0.546875 -8.21875 0.453125 -8.3125 C 0.359375 -8.40625 0.3125 -8.519531 0.3125 -8.65625 L 0.3125 -9.78125 C 0.3125 -9.914062 0.359375 -10.03125 0.453125 -10.125 C 0.546875 -10.21875 0.660156 -10.265625 0.796875 -10.265625 L 2.34375 -10.265625 L 2.34375 -13.53125 C 2.34375 -13.664062 2.382812 -13.78125 2.46875 -13.875 C 2.5625 -13.96875 2.679688 -14.015625 2.828125 -14.015625 L 4.421875 -14.015625 C 4.554688 -14.015625 4.664062 -13.96875 4.75 -13.875 C 4.84375 -13.78125 4.890625 -13.664062 4.890625 -13.53125 L 4.890625 -10.265625 L 7.359375 -10.265625 C 7.492188 -10.265625 7.601562 -10.21875 7.6875 -10.125 C 7.78125 -10.03125 7.828125 -9.914062 7.828125 -9.78125 L 7.828125 -8.65625 C 7.828125 -8.519531 7.78125 -8.40625 7.6875 -8.3125 C 7.601562 -8.21875 7.492188 -8.171875 7.359375 -8.171875 L 4.890625 -8.171875 L 4.890625 -3.890625 C 4.890625 -3.347656 4.984375 -2.925781 5.171875 -2.625 C 5.367188 -2.320312 5.703125 -2.171875 6.171875 -2.171875 L 7.53125 -2.171875 C 7.664062 -2.171875 7.78125 -2.125 7.875 -2.03125 C 7.96875 -1.9375 8.015625 -1.828125 8.015625 -1.703125 L 8.015625 -0.46875 C 8.015625 -0.34375 7.96875 -0.234375 7.875 -0.140625 C 7.78125 -0.046875 7.664062 0 7.53125 0 Z M 5.9375 0 "/></g></g></g><g fill="#ffffff" fill-opacity="1"><g transform="translate(125.893154, 37.048665)"><g><path d="M 1.78125 0 C 1.644531 0 1.53125 -0.046875 1.4375 -0.140625 C 1.34375 -0.234375 1.296875 -0.34375 1.296875 -0.46875 L 1.296875 -9.765625 C 1.296875 -9.910156 1.34375 -10.03125 1.4375 -10.125 C 1.53125 -10.21875 1.644531 -10.265625 1.78125 -10.265625 L 3.375 -10.265625 C 3.507812 -10.265625 3.625 -10.21875 3.71875 -10.125 C 3.820312 -10.03125 3.875 -9.910156 3.875 -9.765625 L 3.875 -8.953125 C 4.175781 -9.378906 4.566406 -9.703125 5.046875 -9.921875 C 5.523438 -10.148438 6.078125 -10.265625 6.703125 -10.265625 L 7.515625 -10.265625 C 7.660156 -10.265625 7.773438 -10.21875 7.859375 -10.125 C 7.953125 -10.03125 8 -9.914062 8 -9.78125 L 8 -8.375 C 8 -8.238281 7.953125 -8.125 7.859375 -8.03125 C 7.773438 -7.9375 7.660156 -7.890625 7.515625 -7.890625 L 5.984375 -7.890625 C 5.347656 -7.890625 4.851562 -7.710938 4.5 -7.359375 C 4.15625 -7.015625 3.984375 -6.53125 3.984375 -5.90625 L 3.984375 -0.46875 C 3.984375 -0.34375 3.9375 -0.234375 3.84375 -0.140625 C 3.75 -0.046875 3.632812 0 3.5 0 Z M 1.78125 0 "/></g></g></g><g fill="#ffffff" fill-opacity="1"><g transform="translate(134.121306, 37.048665)"><g><path d="M 4.890625 -14.703125 C 4.679688 -14.703125 4.578125 -14.804688 4.578125 -15.015625 C 4.578125 -15.117188 4.609375 -15.207031 4.671875 -15.28125 L 5.84375 -17.234375 C 5.957031 -17.367188 6.0625 -17.457031 6.15625 -17.5 C 6.257812 -17.550781 6.398438 -17.578125 6.578125 -17.578125 L 8.203125 -17.578125 C 8.453125 -17.578125 8.578125 -17.453125 8.578125 -17.203125 C 8.578125 -17.109375 8.546875 -17.03125 8.484375 -16.96875 L 6.4375 -14.953125 C 6.332031 -14.867188 6.226562 -14.804688 6.125 -14.765625 C 6.03125 -14.722656 5.90625 -14.703125 5.75 -14.703125 Z M 5.5 -11.734375 C 4.675781 -11.734375 4.039062 -11.835938 3.59375 -12.046875 C 3.15625 -12.265625 2.84375 -12.546875 2.65625 -12.890625 C 2.46875 -13.234375 2.375 -13.582031 2.375 -13.9375 C 2.375 -14.03125 2.40625 -14.113281 2.46875 -14.1875 C 2.539062 -14.269531 2.632812 -14.3125 2.75 -14.3125 L 3.84375 -14.3125 C 3.96875 -14.3125 4.0625 -14.269531 4.125 -14.1875 C 4.1875 -14.113281 4.21875 -14.03125 4.21875 -13.9375 C 4.21875 -13.695312 4.316406 -13.488281 4.515625 -13.3125 C 4.722656 -13.132812 5.050781 -13.046875 5.5 -13.046875 C 5.988281 -13.046875 6.332031 -13.132812 6.53125 -13.3125 C 6.726562 -13.488281 6.828125 -13.695312 6.828125 -13.9375 C 6.828125 -14.03125 6.859375 -14.113281 6.921875 -14.1875 C 6.992188 -14.269531 7.085938 -14.3125 7.203125 -14.3125 L 8.3125 -14.3125 C 8.414062 -14.3125 8.503906 -14.269531 8.578125 -14.1875 C 8.648438 -14.113281 8.6875 -14.03125 8.6875 -13.9375 C 8.6875 -13.582031 8.585938 -13.234375 8.390625 -12.890625 C 8.203125 -12.546875 7.890625 -12.265625 7.453125 -12.046875 C 7.023438 -11.835938 6.375 -11.734375 5.5 -11.734375 Z M 4.28125 0.203125 C 3.59375 0.203125 2.972656 0.0664062 2.421875 -0.203125 C 1.867188 -0.472656 1.429688 -0.832031 1.109375 -1.28125 C 0.785156 -1.738281 0.625 -2.253906 0.625 -2.828125 C 0.625 -3.742188 1 -4.472656 1.75 -5.015625 C 2.5 -5.566406 3.484375 -5.9375 4.703125 -6.125 L 7.40625 -6.515625 L 7.40625 -6.921875 C 7.40625 -7.472656 7.265625 -7.898438 6.984375 -8.203125 C 6.710938 -8.503906 6.238281 -8.65625 5.5625 -8.65625 C 5.09375 -8.65625 4.707031 -8.5625 4.40625 -8.375 C 4.113281 -8.1875 3.894531 -7.9375 3.75 -7.625 C 3.644531 -7.445312 3.492188 -7.359375 3.296875 -7.359375 L 1.734375 -7.359375 C 1.585938 -7.359375 1.476562 -7.394531 1.40625 -7.46875 C 1.332031 -7.550781 1.296875 -7.660156 1.296875 -7.796875 C 1.316406 -8.003906 1.40625 -8.257812 1.5625 -8.5625 C 1.726562 -8.863281 1.976562 -9.15625 2.3125 -9.4375 C 2.65625 -9.726562 3.09375 -9.96875 3.625 -10.15625 C 4.164062 -10.351562 4.816406 -10.453125 5.578125 -10.453125 C 6.410156 -10.453125 7.113281 -10.347656 7.6875 -10.140625 C 8.257812 -9.941406 8.71875 -9.671875 9.0625 -9.328125 C 9.40625 -8.992188 9.65625 -8.59375 9.8125 -8.125 C 9.96875 -7.664062 10.046875 -7.179688 10.046875 -6.671875 L 10.046875 -0.46875 C 10.046875 -0.34375 10 -0.234375 9.90625 -0.140625 C 9.8125 -0.046875 9.703125 0 9.578125 0 L 7.96875 0 C 7.820312 0 7.707031 -0.046875 7.625 -0.140625 C 7.539062 -0.234375 7.5 -0.34375 7.5 -0.46875 L 7.5 -1.25 C 7.332031 -1.007812 7.101562 -0.773438 6.8125 -0.546875 C 6.519531 -0.328125 6.164062 -0.144531 5.75 0 C 5.332031 0.132812 4.84375 0.203125 4.28125 0.203125 Z M 4.953125 -1.671875 C 5.410156 -1.671875 5.828125 -1.769531 6.203125 -1.96875 C 6.578125 -2.164062 6.875 -2.472656 7.09375 -2.890625 C 7.3125 -3.304688 7.421875 -3.828125 7.421875 -4.453125 L 7.421875 -4.875 L 5.453125 -4.5625 C 4.671875 -4.4375 4.085938 -4.242188 3.703125 -3.984375 C 3.328125 -3.722656 3.140625 -3.398438 3.140625 -3.015625 C 3.140625 -2.722656 3.226562 -2.472656 3.40625 -2.265625 C 3.582031 -2.066406 3.804688 -1.914062 4.078125 -1.8125 C 4.359375 -1.71875 4.648438 -1.671875 4.953125 -1.671875 Z M 4.953125 -1.671875 "/></g></g></g><g fill="#ffffff" fill-opacity="1"><g transform="translate(145.388141, 37.048665)"><g><path d="M 5.75 0.203125 C 4.800781 0.203125 3.96875 0.0234375 3.25 -0.328125 C 2.53125 -0.691406 1.96875 -1.210938 1.5625 -1.890625 C 1.164062 -2.566406 0.945312 -3.382812 0.90625 -4.34375 C 0.894531 -4.539062 0.890625 -4.800781 0.890625 -5.125 C 0.890625 -5.445312 0.894531 -5.710938 0.90625 -5.921875 C 0.945312 -6.878906 1.164062 -7.695312 1.5625 -8.375 C 1.96875 -9.050781 2.53125 -9.566406 3.25 -9.921875 C 3.96875 -10.273438 4.800781 -10.453125 5.75 -10.453125 C 6.582031 -10.453125 7.296875 -10.335938 7.890625 -10.109375 C 8.484375 -9.878906 8.96875 -9.582031 9.34375 -9.21875 C 9.726562 -8.863281 10.015625 -8.488281 10.203125 -8.09375 C 10.398438 -7.707031 10.503906 -7.359375 10.515625 -7.046875 C 10.515625 -7.035156 10.515625 -7.015625 10.515625 -6.984375 C 10.515625 -6.867188 10.46875 -6.769531 10.375 -6.6875 C 10.28125 -6.613281 10.171875 -6.578125 10.046875 -6.578125 L 8.3125 -6.578125 C 8.175781 -6.578125 8.070312 -6.609375 8 -6.671875 C 7.925781 -6.734375 7.859375 -6.832031 7.796875 -6.96875 C 7.597656 -7.488281 7.335938 -7.859375 7.015625 -8.078125 C 6.691406 -8.296875 6.28125 -8.40625 5.78125 -8.40625 C 5.125 -8.40625 4.597656 -8.195312 4.203125 -7.78125 C 3.816406 -7.363281 3.613281 -6.710938 3.59375 -5.828125 C 3.582031 -5.578125 3.578125 -5.335938 3.578125 -5.109375 C 3.578125 -4.867188 3.582031 -4.644531 3.59375 -4.4375 C 3.613281 -3.53125 3.816406 -2.875 4.203125 -2.46875 C 4.597656 -2.0625 5.125 -1.859375 5.78125 -1.859375 C 6.289062 -1.859375 6.703125 -1.960938 7.015625 -2.171875 C 7.335938 -2.390625 7.597656 -2.765625 7.796875 -3.296875 C 7.859375 -3.429688 7.925781 -3.53125 8 -3.59375 C 8.070312 -3.65625 8.175781 -3.6875 8.3125 -3.6875 L 10.046875 -3.6875 C 10.171875 -3.6875 10.28125 -3.644531 10.375 -3.5625 C 10.46875 -3.488281 10.515625 -3.394531 10.515625 -3.28125 C 10.515625 -3.25 10.515625 -3.226562 10.515625 -3.21875 C 10.503906 -2.976562 10.441406 -2.707031 10.328125 -2.40625 C 10.210938 -2.113281 10.035156 -1.8125 9.796875 -1.5 C 9.554688 -1.195312 9.25 -0.914062 8.875 -0.65625 C 8.507812 -0.40625 8.066406 -0.195312 7.546875 -0.03125 C 7.023438 0.125 6.425781 0.203125 5.75 0.203125 Z M 5.75 0.203125 "/></g></g></g><g fill="#ffffff" fill-opacity="1"><g transform="translate(156.654976, 37.048665)"><g/></g></g><g fill="#ffffff" fill-opacity="1"><g transform="translate(161.173554, 37.048665)"><g><path d="M 1.78125 0 C 1.644531 0 1.53125 -0.046875 1.4375 -0.140625 C 1.34375 -0.234375 1.296875 -0.34375 1.296875 -0.46875 L 1.296875 -9.78125 C 1.296875 -9.914062 1.34375 -10.03125 1.4375 -10.125 C 1.53125 -10.21875 1.644531 -10.265625 1.78125 -10.265625 L 3.390625 -10.265625 C 3.523438 -10.265625 3.640625 -10.21875 3.734375 -10.125 C 3.828125 -10.03125 3.875 -9.914062 3.875 -9.78125 L 3.875 -8.984375 C 4.207031 -9.398438 4.640625 -9.75 5.171875 -10.03125 C 5.710938 -10.3125 6.375 -10.453125 7.15625 -10.453125 C 7.96875 -10.453125 8.664062 -10.269531 9.25 -9.90625 C 9.84375 -9.550781 10.300781 -9.046875 10.625 -8.390625 C 10.945312 -7.734375 11.109375 -6.941406 11.109375 -6.015625 L 11.109375 -0.46875 C 11.109375 -0.34375 11.0625 -0.234375 10.96875 -0.140625 C 10.875 -0.046875 10.765625 0 10.640625 0 L 8.90625 0 C 8.769531 0 8.65625 -0.046875 8.5625 -0.140625 C 8.46875 -0.234375 8.421875 -0.34375 8.421875 -0.46875 L 8.421875 -5.90625 C 8.421875 -6.664062 8.234375 -7.257812 7.859375 -7.6875 C 7.484375 -8.125 6.941406 -8.34375 6.234375 -8.34375 C 5.546875 -8.34375 5 -8.125 4.59375 -7.6875 C 4.1875 -7.257812 3.984375 -6.664062 3.984375 -5.90625 L 3.984375 -0.46875 C 3.984375 -0.34375 3.9375 -0.234375 3.84375 -0.140625 C 3.75 -0.046875 3.640625 0 3.515625 0 Z M 1.78125 0 "/></g></g></g><g fill="#ffffff" fill-opacity="1"><g transform="translate(173.486182, 37.048665)"><g><path d="M 5.9375 4.34375 C 4.976562 4.34375 4.1875 4.21875 3.5625 3.96875 C 2.945312 3.71875 2.460938 3.414062 2.109375 3.0625 C 1.753906 2.707031 1.5 2.351562 1.34375 2 C 1.195312 1.65625 1.117188 1.382812 1.109375 1.1875 C 1.109375 1.175781 1.109375 1.160156 1.109375 1.140625 C 1.109375 1.023438 1.148438 0.921875 1.234375 0.828125 C 1.328125 0.734375 1.441406 0.6875 1.578125 0.6875 L 3.296875 0.6875 C 3.429688 0.6875 3.535156 0.71875 3.609375 0.78125 C 3.691406 0.84375 3.757812 0.953125 3.8125 1.109375 C 3.882812 1.273438 3.988281 1.457031 4.125 1.65625 C 4.257812 1.851562 4.457031 2.019531 4.71875 2.15625 C 4.988281 2.300781 5.363281 2.375 5.84375 2.375 C 6.34375 2.375 6.765625 2.300781 7.109375 2.15625 C 7.453125 2.007812 7.710938 1.765625 7.890625 1.421875 C 8.066406 1.078125 8.15625 0.601562 8.15625 0 L 8.15625 -1.34375 C 7.832031 -0.957031 7.425781 -0.644531 6.9375 -0.40625 C 6.445312 -0.175781 5.835938 -0.0625 5.109375 -0.0625 C 4.410156 -0.0625 3.800781 -0.175781 3.28125 -0.40625 C 2.757812 -0.632812 2.328125 -0.957031 1.984375 -1.375 C 1.648438 -1.789062 1.394531 -2.28125 1.21875 -2.84375 C 1.039062 -3.40625 0.9375 -4.03125 0.90625 -4.71875 C 0.90625 -4.90625 0.90625 -5.082031 0.90625 -5.25 C 0.90625 -5.4375 0.90625 -5.613281 0.90625 -5.78125 C 0.9375 -6.4375 1.039062 -7.046875 1.21875 -7.609375 C 1.394531 -8.179688 1.648438 -8.679688 1.984375 -9.109375 C 2.328125 -9.535156 2.757812 -9.863281 3.28125 -10.09375 C 3.800781 -10.332031 4.410156 -10.453125 5.109375 -10.453125 C 5.859375 -10.453125 6.488281 -10.3125 7 -10.03125 C 7.519531 -9.75 7.941406 -9.398438 8.265625 -8.984375 L 8.265625 -9.765625 C 8.265625 -9.910156 8.3125 -10.03125 8.40625 -10.125 C 8.5 -10.21875 8.613281 -10.265625 8.75 -10.265625 L 10.34375 -10.265625 C 10.46875 -10.265625 10.578125 -10.21875 10.671875 -10.125 C 10.765625 -10.03125 10.8125 -9.910156 10.8125 -9.765625 L 10.828125 -0.25 C 10.828125 0.695312 10.648438 1.507812 10.296875 2.1875 C 9.941406 2.875 9.40625 3.40625 8.6875 3.78125 C 7.976562 4.15625 7.0625 4.34375 5.9375 4.34375 Z M 5.84375 -2.15625 C 6.382812 -2.15625 6.816406 -2.269531 7.140625 -2.5 C 7.472656 -2.738281 7.71875 -3.046875 7.875 -3.421875 C 8.03125 -3.804688 8.125 -4.195312 8.15625 -4.59375 C 8.164062 -4.769531 8.171875 -4.988281 8.171875 -5.25 C 8.171875 -5.507812 8.164062 -5.71875 8.15625 -5.875 C 8.125 -6.289062 8.03125 -6.6875 7.875 -7.0625 C 7.71875 -7.4375 7.472656 -7.742188 7.140625 -7.984375 C 6.816406 -8.222656 6.382812 -8.34375 5.84375 -8.34375 C 5.300781 -8.34375 4.863281 -8.222656 4.53125 -7.984375 C 4.207031 -7.742188 3.972656 -7.425781 3.828125 -7.03125 C 3.691406 -6.632812 3.613281 -6.195312 3.59375 -5.71875 C 3.582031 -5.5625 3.578125 -5.40625 3.578125 -5.25 C 3.578125 -5.09375 3.582031 -4.925781 3.59375 -4.75 C 3.613281 -4.289062 3.691406 -3.859375 3.828125 -3.453125 C 3.972656 -3.054688 4.207031 -2.738281 4.53125 -2.5 C 4.863281 -2.269531 5.300781 -2.15625 5.84375 -2.15625 Z M 5.84375 -2.15625 "/></g></g></g><g fill="#ffffff" fill-opacity="1"><g transform="translate(185.640948, 37.048665)"><g><path d="M 1.796875 0 C 1.660156 0 1.546875 -0.046875 1.453125 -0.140625 C 1.367188 -0.234375 1.328125 -0.34375 1.328125 -0.46875 L 1.328125 -13.53125 C 1.328125 -13.664062 1.367188 -13.78125 1.453125 -13.875 C 1.546875 -13.96875 1.660156 -14.015625 1.796875 -14.015625 L 3.546875 -14.015625 C 3.691406 -14.015625 3.804688 -13.96875 3.890625 -13.875 C 3.984375 -13.78125 4.03125 -13.664062 4.03125 -13.53125 L 4.03125 -9.03125 C 4.382812 -9.457031 4.816406 -9.800781 5.328125 -10.0625 C 5.835938 -10.320312 6.46875 -10.453125 7.21875 -10.453125 C 8.019531 -10.453125 8.71875 -10.269531 9.3125 -9.90625 C 9.914062 -9.550781 10.378906 -9.046875 10.703125 -8.390625 C 11.035156 -7.734375 11.203125 -6.941406 11.203125 -6.015625 L 11.203125 -0.46875 C 11.203125 -0.34375 11.15625 -0.234375 11.0625 -0.140625 C 10.976562 -0.046875 10.867188 0 10.734375 0 L 8.953125 0 C 8.828125 0 8.71875 -0.046875 8.625 -0.140625 C 8.53125 -0.234375 8.484375 -0.34375 8.484375 -0.46875 L 8.484375 -5.90625 C 8.484375 -6.664062 8.296875 -7.257812 7.921875 -7.6875 C 7.546875 -8.125 7.003906 -8.34375 6.296875 -8.34375 C 5.609375 -8.34375 5.054688 -8.125 4.640625 -7.6875 C 4.234375 -7.257812 4.03125 -6.664062 4.03125 -5.90625 L 4.03125 -0.46875 C 4.03125 -0.34375 3.984375 -0.234375 3.890625 -0.140625 C 3.804688 -0.046875 3.691406 0 3.546875 0 Z M 1.796875 0 "/></g></g></g><g fill="#ffffff" fill-opacity="1"><g transform="translate(198.052227, 37.048665)"><g><path d="M 1.703125 -12.03125 C 1.566406 -12.03125 1.453125 -12.078125 1.359375 -12.171875 C 1.265625 -12.265625 1.21875 -12.378906 1.21875 -12.515625 L 1.21875 -13.9375 C 1.21875 -14.0625 1.265625 -14.171875 1.359375 -14.265625 C 1.453125 -14.359375 1.566406 -14.40625 1.703125 -14.40625 L 3.5 -14.40625 C 3.632812 -14.40625 3.75 -14.359375 3.84375 -14.265625 C 3.9375 -14.171875 3.984375 -14.0625 3.984375 -13.9375 L 3.984375 -12.515625 C 3.984375 -12.378906 3.9375 -12.265625 3.84375 -12.171875 C 3.75 -12.078125 3.632812 -12.03125 3.5 -12.03125 Z M 1.78125 0 C 1.644531 0 1.53125 -0.046875 1.4375 -0.140625 C 1.34375 -0.234375 1.296875 -0.34375 1.296875 -0.46875 L 1.296875 -9.78125 C 1.296875 -9.914062 1.34375 -10.03125 1.4375 -10.125 C 1.53125 -10.21875 1.644531 -10.265625 1.78125 -10.265625 L 3.40625 -10.265625 C 3.550781 -10.265625 3.664062 -10.21875 3.75 -10.125 C 3.84375 -10.03125 3.890625 -9.914062 3.890625 -9.78125 L 3.890625 -0.46875 C 3.890625 -0.34375 3.84375 -0.234375 3.75 -0.140625 C 3.664062 -0.046875 3.550781 0 3.40625 0 Z M 1.78125 0 "/></g></g></g><g fill="#ffffff" fill-opacity="1"><g transform="translate(203.261411, 37.048665)"><g><path d="M 2.703125 -11.734375 C 2.503906 -11.734375 2.40625 -11.820312 2.40625 -12 C 2.40625 -12.101562 2.460938 -12.210938 2.578125 -12.328125 L 4.5 -14.3125 C 4.644531 -14.457031 4.765625 -14.546875 4.859375 -14.578125 C 4.960938 -14.609375 5.066406 -14.625 5.171875 -14.625 L 6.25 -14.625 C 6.375 -14.625 6.484375 -14.609375 6.578125 -14.578125 C 6.679688 -14.546875 6.796875 -14.457031 6.921875 -14.3125 L 8.84375 -12.328125 C 8.957031 -12.210938 9.015625 -12.101562 9.015625 -12 C 9.015625 -11.820312 8.914062 -11.734375 8.71875 -11.734375 L 8.015625 -11.734375 C 7.910156 -11.734375 7.800781 -11.742188 7.6875 -11.765625 C 7.570312 -11.785156 7.46875 -11.820312 7.375 -11.875 L 5.71875 -12.921875 L 4.046875 -11.875 C 3.953125 -11.820312 3.847656 -11.785156 3.734375 -11.765625 C 3.628906 -11.742188 3.53125 -11.734375 3.4375 -11.734375 Z M 5.71875 0.203125 C 4.257812 0.203125 3.101562 -0.21875 2.25 -1.0625 C 1.394531 -1.90625 0.9375 -3.101562 0.875 -4.65625 C 0.851562 -4.789062 0.84375 -4.957031 0.84375 -5.15625 C 0.84375 -5.363281 0.851562 -5.523438 0.875 -5.640625 C 0.925781 -6.640625 1.148438 -7.5 1.546875 -8.21875 C 1.953125 -8.9375 2.507812 -9.488281 3.21875 -9.875 C 3.925781 -10.257812 4.757812 -10.453125 5.71875 -10.453125 C 6.789062 -10.453125 7.6875 -10.234375 8.40625 -9.796875 C 9.132812 -9.359375 9.679688 -8.742188 10.046875 -7.953125 C 10.410156 -7.171875 10.59375 -6.269531 10.59375 -5.25 L 10.59375 -4.828125 C 10.59375 -4.703125 10.546875 -4.59375 10.453125 -4.5 C 10.367188 -4.40625 10.253906 -4.359375 10.109375 -4.359375 L 3.546875 -4.359375 L 3.546875 -4.203125 C 3.566406 -3.742188 3.65625 -3.316406 3.8125 -2.921875 C 3.976562 -2.535156 4.222656 -2.222656 4.546875 -1.984375 C 4.867188 -1.753906 5.253906 -1.640625 5.703125 -1.640625 C 6.066406 -1.640625 6.375 -1.691406 6.625 -1.796875 C 6.875 -1.910156 7.078125 -2.039062 7.234375 -2.1875 C 7.398438 -2.332031 7.515625 -2.453125 7.578125 -2.546875 C 7.691406 -2.703125 7.785156 -2.796875 7.859375 -2.828125 C 7.929688 -2.859375 8.039062 -2.875 8.1875 -2.875 L 9.890625 -2.875 C 10.015625 -2.875 10.117188 -2.835938 10.203125 -2.765625 C 10.285156 -2.703125 10.328125 -2.613281 10.328125 -2.5 C 10.328125 -2.488281 10.328125 -2.476562 10.328125 -2.46875 C 10.304688 -2.257812 10.191406 -2.003906 9.984375 -1.703125 C 9.785156 -1.398438 9.492188 -1.101562 9.109375 -0.8125 C 8.734375 -0.519531 8.257812 -0.273438 7.6875 -0.078125 C 7.113281 0.109375 6.457031 0.203125 5.71875 0.203125 Z M 3.546875 -6.015625 L 7.90625 -6.015625 L 7.90625 -6.078125 C 7.90625 -6.585938 7.820312 -7.035156 7.65625 -7.421875 C 7.488281 -7.816406 7.238281 -8.117188 6.90625 -8.328125 C 6.570312 -8.546875 6.175781 -8.65625 5.71875 -8.65625 C 5.257812 -8.65625 4.863281 -8.546875 4.53125 -8.328125 C 4.207031 -8.117188 3.960938 -7.816406 3.796875 -7.421875 C 3.628906 -7.035156 3.546875 -6.585938 3.546875 -6.078125 Z M 4.796875 4.1875 C 4.660156 4.1875 4.546875 4.140625 4.453125 4.046875 C 4.367188 3.953125 4.328125 3.835938 4.328125 3.703125 L 4.328125 2.296875 C 4.328125 2.160156 4.367188 2.046875 4.453125 1.953125 C 4.546875 1.859375 4.660156 1.8125 4.796875 1.8125 L 6.59375 1.8125 C 6.738281 1.8125 6.851562 1.859375 6.9375 1.953125 C 7.03125 2.046875 7.078125 2.160156 7.078125 2.296875 L 7.078125 3.703125 C 7.078125 3.835938 7.03125 3.953125 6.9375 4.046875 C 6.851562 4.140625 6.738281 4.1875 6.59375 4.1875 Z M 4.796875 4.1875 "/></g></g></g><g fill="#ffffff" fill-opacity="1"><g transform="translate(214.646646, 37.048665)"><g><path d="M 1.78125 0 C 1.644531 0 1.53125 -0.046875 1.4375 -0.140625 C 1.34375 -0.234375 1.296875 -0.34375 1.296875 -0.46875 L 1.296875 -9.78125 C 1.296875 -9.914062 1.34375 -10.03125 1.4375 -10.125 C 1.53125 -10.21875 1.644531 -10.265625 1.78125 -10.265625 L 3.3125 -10.265625 C 3.445312 -10.265625 3.554688 -10.21875 3.640625 -10.125 C 3.734375 -10.03125 3.78125 -9.914062 3.78125 -9.78125 L 3.78125 -9.125 C 4.0625 -9.488281 4.4375 -9.796875 4.90625 -10.046875 C 5.375 -10.304688 5.929688 -10.441406 6.578125 -10.453125 C 6.597656 -10.453125 6.628906 -10.453125 6.671875 -10.453125 C 8.117188 -10.453125 9.128906 -9.867188 9.703125 -8.703125 C 10.003906 -9.234375 10.441406 -9.65625 11.015625 -9.96875 C 11.585938 -10.289062 12.222656 -10.453125 12.921875 -10.453125 C 13.609375 -10.453125 14.226562 -10.296875 14.78125 -9.984375 C 15.34375 -9.671875 15.785156 -9.191406 16.109375 -8.546875 C 16.429688 -7.910156 16.59375 -7.109375 16.59375 -6.140625 L 16.59375 -0.46875 C 16.59375 -0.34375 16.546875 -0.234375 16.453125 -0.140625 C 16.367188 -0.046875 16.257812 0 16.125 0 L 14.5 0 C 14.375 0 14.265625 -0.046875 14.171875 -0.140625 C 14.078125 -0.234375 14.03125 -0.34375 14.03125 -0.46875 L 14.03125 -5.984375 C 14.03125 -6.578125 13.941406 -7.046875 13.765625 -7.390625 C 13.597656 -7.734375 13.367188 -7.976562 13.078125 -8.125 C 12.796875 -8.269531 12.472656 -8.34375 12.109375 -8.34375 C 11.828125 -8.34375 11.539062 -8.269531 11.25 -8.125 C 10.957031 -7.976562 10.71875 -7.734375 10.53125 -7.390625 C 10.351562 -7.046875 10.265625 -6.578125 10.265625 -5.984375 L 10.265625 -0.46875 C 10.265625 -0.34375 10.21875 -0.234375 10.125 -0.140625 C 10.03125 -0.046875 9.914062 0 9.78125 0 L 8.171875 0 C 8.035156 0 7.921875 -0.046875 7.828125 -0.140625 C 7.742188 -0.234375 7.703125 -0.34375 7.703125 -0.46875 L 7.703125 -5.984375 C 7.703125 -6.578125 7.609375 -7.046875 7.421875 -7.390625 C 7.234375 -7.734375 6.992188 -7.976562 6.703125 -8.125 C 6.421875 -8.269531 6.113281 -8.34375 5.78125 -8.34375 C 5.476562 -8.34375 5.179688 -8.265625 4.890625 -8.109375 C 4.597656 -7.960938 4.359375 -7.71875 4.171875 -7.375 C 3.992188 -7.039062 3.90625 -6.578125 3.90625 -5.984375 L 3.90625 -0.46875 C 3.90625 -0.34375 3.859375 -0.234375 3.765625 -0.140625 C 3.671875 -0.046875 3.5625 0 3.4375 0 Z M 1.78125 0 "/></g></g></g></svg>