<svg xmlns="http://www.w3.org/2000/svg" xmlns:xlink="http://www.w3.org/1999/xlink" width="329" zoomAndPan="magnify" viewBox="0 0 246.75 60" height="80" preserveAspectRatio="xMidYMid meet" version="1.0"><defs><g/><clipPath id="0982267fe1"><path d="M 69.957031 13.820312 L 246.324219 13.820312 L 246.324219 46.632812 L 69.957031 46.632812 Z M 69.957031 13.820312 " clip-rule="nonzero"/></clipPath><clipPath id="9895051187"><path d="M 86.113281 13.820312 L 229.917969 13.820312 C 238.839844 13.820312 246.074219 21.050781 246.074219 29.976562 C 246.074219 38.898438 238.839844 46.128906 229.917969 46.128906 L 86.113281 46.128906 C 77.191406 46.128906 69.957031 38.898438 69.957031 29.976562 C 69.957031 21.050781 77.191406 13.820312 86.113281 13.820312 " clip-rule="nonzero"/></clipPath></defs><g clip-path="url(#0982267fe1)"><g clip-path="url(#9895051187)"><path fill="#ffffff" d="M 69.957031 13.820312 L 246.324219 13.820312 L 246.324219 46.046875 L 69.957031 46.046875 Z M 69.957031 13.820312 " fill-opacity="1" fill-rule="nonzero"/></g></g><path fill="#ffffff" d="M 10.527344 52.050781 L 40.152344 52.050781 C 41.515625 52.050781 42.621094 50.945312 42.621094 49.582031 L 42.621094 10.082031 C 42.621094 8.71875 41.515625 7.613281 40.152344 7.613281 L 10.527344 7.613281 C 9.164062 7.613281 8.058594 8.71875 8.058594 10.082031 L 8.058594 49.582031 C 8.058594 50.945312 9.164062 52.050781 10.527344 52.050781 Z M 40.152344 54.519531 L 10.527344 54.519531 C 7.796875 54.519531 5.589844 52.308594 5.589844 49.582031 L 5.589844 10.082031 C 5.589844 7.351562 7.796875 5.144531 10.527344 5.144531 L 40.152344 5.144531 C 42.878906 5.144531 45.089844 7.351562 45.089844 10.082031 L 45.089844 49.582031 C 45.089844 52.308594 42.878906 54.519531 40.152344 54.519531 Z M 40.152344 54.519531 " fill-opacity="1" fill-rule="evenodd"/><path fill="#ffffff" d="M 22.871094 16.253906 C 22.871094 15.570312 23.421875 15.019531 24.105469 15.019531 L 38.917969 15.019531 C 39.597656 15.019531 40.152344 15.570312 40.152344 16.253906 C 40.152344 16.933594 39.597656 17.488281 38.917969 17.488281 L 24.105469 17.488281 C 23.421875 17.488281 22.871094 16.933594 22.871094 16.253906 Z M 22.871094 16.253906 " fill-opacity="1" fill-rule="evenodd"/><path fill="#ffffff" d="M 22.871094 21.191406 C 22.871094 20.507812 23.421875 19.957031 24.105469 19.957031 L 38.917969 19.957031 C 39.597656 19.957031 40.152344 20.507812 40.152344 21.191406 C 40.152344 21.871094 39.597656 22.425781 38.917969 22.425781 L 24.105469 22.425781 C 23.421875 22.425781 22.871094 21.871094 22.871094 21.191406 Z M 22.871094 21.191406 " fill-opacity="1" fill-rule="evenodd"/><path fill="#ffffff" d="M 22.871094 31.066406 C 22.871094 30.382812 23.421875 29.832031 24.105469 29.832031 L 38.917969 29.832031 C 39.597656 29.832031 40.152344 30.382812 40.152344 31.066406 C 40.152344 31.746094 39.597656 32.300781 38.917969 32.300781 L 24.105469 32.300781 C 23.421875 32.300781 22.871094 31.746094 22.871094 31.066406 Z M 22.871094 31.066406 " fill-opacity="1" fill-rule="evenodd"/><path fill="#ffffff" d="M 22.871094 36.003906 C 22.871094 35.320312 23.421875 34.769531 24.105469 34.769531 L 38.917969 34.769531 C 39.597656 34.769531 40.152344 35.320312 40.152344 36.003906 C 40.152344 36.683594 39.597656 37.238281 38.917969 37.238281 L 24.105469 37.238281 C 23.421875 37.238281 22.871094 36.683594 22.871094 36.003906 Z M 22.871094 36.003906 " fill-opacity="1" fill-rule="evenodd"/><path fill="#ffffff" d="M 12.996094 32.300781 L 12.996094 36.003906 L 16.699219 36.003906 L 16.699219 32.300781 Z M 11.761719 29.832031 L 17.933594 29.832031 C 18.613281 29.832031 19.167969 30.382812 19.167969 31.066406 L 19.167969 37.238281 C 19.167969 37.917969 18.613281 38.472656 17.933594 38.472656 L 11.761719 38.472656 C 11.078125 38.472656 10.527344 37.917969 10.527344 37.238281 L 10.527344 31.066406 C 10.527344 30.382812 11.078125 29.832031 11.761719 29.832031 Z M 11.761719 29.832031 " fill-opacity="1" fill-rule="evenodd"/><path fill="#ffffff" d="M 20.039062 15.378906 C 20.519531 15.859375 20.519531 16.644531 20.039062 17.125 L 14.230469 22.933594 L 10.886719 19.59375 C 10.40625 19.113281 10.40625 18.328125 10.886719 17.847656 C 11.371094 17.367188 12.152344 17.367188 12.632812 17.847656 L 14.230469 19.445312 L 18.292969 15.378906 C 18.777344 14.898438 19.558594 14.898438 20.039062 15.378906 Z M 20.039062 15.378906 " fill-opacity="1" fill-rule="evenodd"/><path fill="#ffffff" d="M 52.496094 29.832031 L 50.027344 29.832031 L 50.027344 48.757812 L 51.261719 50.402344 L 52.496094 48.757812 Z M 54.964844 49.582031 L 51.261719 54.519531 L 47.558594 49.582031 L 47.558594 27.363281 L 54.964844 27.363281 Z M 54.964844 49.582031 " fill-opacity="1" fill-rule="evenodd"/><path fill="#ffffff" d="M 52.496094 21.191406 L 50.027344 21.191406 L 50.027344 23.660156 L 52.496094 23.660156 Z M 50.027344 18.722656 L 52.496094 18.722656 C 53.859375 18.722656 54.964844 19.824219 54.964844 21.191406 L 54.964844 26.128906 L 47.558594 26.128906 L 47.558594 21.191406 C 47.558594 19.824219 48.664062 18.722656 50.027344 18.722656 Z M 50.027344 18.722656 " fill-opacity="1" fill-rule="evenodd"/><g fill="#2b3445" fill-opacity="1"><g transform="translate(83.227439, 36.724673)"><g><path d="M 5.0625 0 C 4.9375 0 4.828125 -0.046875 4.734375 -0.140625 C 4.640625 -0.234375 4.59375 -0.34375 4.59375 -0.46875 L 4.59375 -11.421875 L 0.9375 -11.421875 C 0.800781 -11.421875 0.6875 -11.46875 0.59375 -11.5625 C 0.5 -11.65625 0.453125 -11.765625 0.453125 -11.890625 L 0.453125 -13.359375 C 0.453125 -13.503906 0.5 -13.625 0.59375 -13.71875 C 0.6875 -13.8125 0.800781 -13.859375 0.9375 -13.859375 L 11.03125 -13.859375 C 11.175781 -13.859375 11.289062 -13.8125 11.375 -13.71875 C 11.46875 -13.625 11.515625 -13.503906 11.515625 -13.359375 L 11.515625 -11.890625 C 11.515625 -11.765625 11.46875 -11.65625 11.375 -11.5625 C 11.289062 -11.46875 11.175781 -11.421875 11.03125 -11.421875 L 7.390625 -11.421875 L 7.390625 -0.46875 C 7.390625 -0.34375 7.34375 -0.234375 7.25 -0.140625 C 7.15625 -0.046875 7.035156 0 6.890625 0 Z M 5.0625 0 "/></g></g></g><g fill="#2b3445" fill-opacity="1"><g transform="translate(95.202147, 36.724673)"><g><path d="M 1.796875 0 C 1.671875 0 1.5625 -0.046875 1.46875 -0.140625 C 1.375 -0.234375 1.328125 -0.34375 1.328125 -0.46875 L 1.328125 -13.578125 C 1.328125 -13.710938 1.375 -13.828125 1.46875 -13.921875 C 1.5625 -14.015625 1.671875 -14.0625 1.796875 -14.0625 L 3.5625 -14.0625 C 3.707031 -14.0625 3.820312 -14.015625 3.90625 -13.921875 C 3.988281 -13.828125 4.03125 -13.710938 4.03125 -13.578125 L 4.03125 -9.0625 C 4.394531 -9.488281 4.832031 -9.832031 5.34375 -10.09375 C 5.863281 -10.363281 6.5 -10.5 7.25 -10.5 C 8.050781 -10.5 8.75 -10.316406 9.34375 -9.953125 C 9.945312 -9.585938 10.414062 -9.070312 10.75 -8.40625 C 11.082031 -7.75 11.25 -6.957031 11.25 -6.03125 L 11.25 -0.46875 C 11.25 -0.34375 11.203125 -0.234375 11.109375 -0.140625 C 11.015625 -0.046875 10.898438 0 10.765625 0 L 8.984375 0 C 8.859375 0 8.75 -0.046875 8.65625 -0.140625 C 8.5625 -0.234375 8.515625 -0.34375 8.515625 -0.46875 L 8.515625 -5.921875 C 8.515625 -6.679688 8.328125 -7.28125 7.953125 -7.71875 C 7.578125 -8.15625 7.03125 -8.375 6.3125 -8.375 C 5.625 -8.375 5.070312 -8.15625 4.65625 -7.71875 C 4.238281 -7.28125 4.03125 -6.679688 4.03125 -5.921875 L 4.03125 -0.46875 C 4.03125 -0.34375 3.988281 -0.234375 3.90625 -0.140625 C 3.820312 -0.046875 3.707031 0 3.5625 0 Z M 1.796875 0 "/></g></g></g><g fill="#2b3445" fill-opacity="1"><g transform="translate(107.651889, 36.724673)"><g><path d="M 1.703125 -12.078125 C 1.566406 -12.078125 1.453125 -12.125 1.359375 -12.21875 C 1.273438 -12.3125 1.234375 -12.421875 1.234375 -12.546875 L 1.234375 -13.984375 C 1.234375 -14.109375 1.273438 -14.21875 1.359375 -14.3125 C 1.453125 -14.40625 1.566406 -14.453125 1.703125 -14.453125 L 3.5 -14.453125 C 3.644531 -14.453125 3.765625 -14.40625 3.859375 -14.3125 C 3.953125 -14.21875 4 -14.109375 4 -13.984375 L 4 -12.546875 C 4 -12.421875 3.953125 -12.3125 3.859375 -12.21875 C 3.765625 -12.125 3.644531 -12.078125 3.5 -12.078125 Z M 1.78125 0 C 1.644531 0 1.53125 -0.046875 1.4375 -0.140625 C 1.351562 -0.234375 1.3125 -0.34375 1.3125 -0.46875 L 1.3125 -9.8125 C 1.3125 -9.945312 1.351562 -10.0625 1.4375 -10.15625 C 1.53125 -10.25 1.644531 -10.296875 1.78125 -10.296875 L 3.421875 -10.296875 C 3.566406 -10.296875 3.679688 -10.25 3.765625 -10.15625 C 3.859375 -10.0625 3.90625 -9.945312 3.90625 -9.8125 L 3.90625 -0.46875 C 3.90625 -0.34375 3.859375 -0.234375 3.765625 -0.140625 C 3.679688 -0.046875 3.566406 0 3.421875 0 Z M 1.78125 0 "/></g></g></g><g fill="#2b3445" fill-opacity="1"><g transform="translate(112.877215, 36.724673)"><g/></g></g><g fill="#2b3445" fill-opacity="1"><g transform="translate(117.409796, 36.724673)"><g><path d="M 5.953125 0 C 5.160156 0 4.492188 -0.132812 3.953125 -0.40625 C 3.410156 -0.6875 3.007812 -1.097656 2.75 -1.640625 C 2.488281 -2.191406 2.359375 -2.878906 2.359375 -3.703125 L 2.359375 -8.203125 L 0.796875 -8.203125 C 0.660156 -8.203125 0.546875 -8.242188 0.453125 -8.328125 C 0.359375 -8.421875 0.3125 -8.539062 0.3125 -8.6875 L 0.3125 -9.8125 C 0.3125 -9.945312 0.359375 -10.0625 0.453125 -10.15625 C 0.546875 -10.25 0.660156 -10.296875 0.796875 -10.296875 L 2.359375 -10.296875 L 2.359375 -13.578125 C 2.359375 -13.710938 2.398438 -13.828125 2.484375 -13.921875 C 2.566406 -14.015625 2.679688 -14.0625 2.828125 -14.0625 L 4.4375 -14.0625 C 4.5625 -14.0625 4.671875 -14.015625 4.765625 -13.921875 C 4.859375 -13.828125 4.90625 -13.710938 4.90625 -13.578125 L 4.90625 -10.296875 L 7.390625 -10.296875 C 7.515625 -10.296875 7.625 -10.25 7.71875 -10.15625 C 7.8125 -10.0625 7.859375 -9.945312 7.859375 -9.8125 L 7.859375 -8.6875 C 7.859375 -8.539062 7.8125 -8.421875 7.71875 -8.328125 C 7.625 -8.242188 7.515625 -8.203125 7.390625 -8.203125 L 4.90625 -8.203125 L 4.90625 -3.90625 C 4.90625 -3.363281 5 -2.9375 5.1875 -2.625 C 5.382812 -2.320312 5.722656 -2.171875 6.203125 -2.171875 L 7.5625 -2.171875 C 7.695312 -2.171875 7.804688 -2.125 7.890625 -2.03125 C 7.984375 -1.945312 8.03125 -1.835938 8.03125 -1.703125 L 8.03125 -0.46875 C 8.03125 -0.34375 7.984375 -0.234375 7.890625 -0.140625 C 7.804688 -0.046875 7.695312 0 7.5625 0 Z M 5.953125 0 "/></g></g></g><g fill="#2b3445" fill-opacity="1"><g transform="translate(125.900957, 36.724673)"><g><path d="M 1.78125 0 C 1.644531 0 1.53125 -0.046875 1.4375 -0.140625 C 1.351562 -0.234375 1.3125 -0.34375 1.3125 -0.46875 L 1.3125 -9.796875 C 1.3125 -9.941406 1.351562 -10.0625 1.4375 -10.15625 C 1.53125 -10.25 1.644531 -10.296875 1.78125 -10.296875 L 3.390625 -10.296875 C 3.515625 -10.296875 3.625 -10.25 3.71875 -10.15625 C 3.820312 -10.0625 3.875 -9.941406 3.875 -9.796875 L 3.875 -8.984375 C 4.175781 -9.410156 4.566406 -9.734375 5.046875 -9.953125 C 5.535156 -10.179688 6.097656 -10.296875 6.734375 -10.296875 L 7.546875 -10.296875 C 7.691406 -10.296875 7.804688 -10.25 7.890625 -10.15625 C 7.972656 -10.0625 8.015625 -9.945312 8.015625 -9.8125 L 8.015625 -8.390625 C 8.015625 -8.265625 7.972656 -8.15625 7.890625 -8.0625 C 7.804688 -7.96875 7.691406 -7.921875 7.546875 -7.921875 L 6 -7.921875 C 5.363281 -7.921875 4.867188 -7.742188 4.515625 -7.390625 C 4.171875 -7.046875 4 -6.554688 4 -5.921875 L 4 -0.46875 C 4 -0.34375 3.953125 -0.234375 3.859375 -0.140625 C 3.765625 -0.046875 3.644531 0 3.5 0 Z M 1.78125 0 "/></g></g></g><g fill="#2b3445" fill-opacity="1"><g transform="translate(134.154608, 36.724673)"><g><path d="M 4.90625 -14.75 C 4.695312 -14.75 4.59375 -14.851562 4.59375 -15.0625 C 4.59375 -15.164062 4.625 -15.253906 4.6875 -15.328125 L 5.859375 -17.28125 C 5.972656 -17.425781 6.078125 -17.519531 6.171875 -17.5625 C 6.273438 -17.613281 6.414062 -17.640625 6.59375 -17.640625 L 8.234375 -17.640625 C 8.484375 -17.640625 8.609375 -17.515625 8.609375 -17.265625 C 8.609375 -17.171875 8.578125 -17.09375 8.515625 -17.03125 L 6.453125 -15 C 6.347656 -14.914062 6.242188 -14.851562 6.140625 -14.8125 C 6.046875 -14.769531 5.921875 -14.75 5.765625 -14.75 Z M 5.515625 -11.78125 C 4.691406 -11.78125 4.054688 -11.882812 3.609375 -12.09375 C 3.171875 -12.300781 2.851562 -12.578125 2.65625 -12.921875 C 2.46875 -13.265625 2.375 -13.617188 2.375 -13.984375 C 2.375 -14.066406 2.410156 -14.148438 2.484375 -14.234375 C 2.554688 -14.316406 2.644531 -14.359375 2.75 -14.359375 L 3.859375 -14.359375 C 3.972656 -14.359375 4.0625 -14.316406 4.125 -14.234375 C 4.195312 -14.148438 4.234375 -14.066406 4.234375 -13.984375 C 4.234375 -13.742188 4.332031 -13.53125 4.53125 -13.34375 C 4.738281 -13.164062 5.066406 -13.078125 5.515625 -13.078125 C 6.003906 -13.078125 6.347656 -13.164062 6.546875 -13.34375 C 6.742188 -13.53125 6.84375 -13.742188 6.84375 -13.984375 C 6.84375 -14.066406 6.875 -14.148438 6.9375 -14.234375 C 7.007812 -14.316406 7.101562 -14.359375 7.21875 -14.359375 L 8.328125 -14.359375 C 8.441406 -14.359375 8.53125 -14.316406 8.59375 -14.234375 C 8.664062 -14.148438 8.703125 -14.066406 8.703125 -13.984375 C 8.703125 -13.617188 8.609375 -13.265625 8.421875 -12.921875 C 8.234375 -12.578125 7.921875 -12.300781 7.484375 -12.09375 C 7.046875 -11.882812 6.390625 -11.78125 5.515625 -11.78125 Z M 4.296875 0.203125 C 3.609375 0.203125 2.988281 0.0664062 2.4375 -0.203125 C 1.882812 -0.472656 1.445312 -0.835938 1.125 -1.296875 C 0.800781 -1.753906 0.640625 -2.265625 0.640625 -2.828125 C 0.640625 -3.753906 1.015625 -4.488281 1.765625 -5.03125 C 2.515625 -5.582031 3.5 -5.953125 4.71875 -6.140625 L 7.421875 -6.53125 L 7.421875 -6.953125 C 7.421875 -7.503906 7.28125 -7.929688 7 -8.234375 C 6.726562 -8.535156 6.253906 -8.6875 5.578125 -8.6875 C 5.109375 -8.6875 4.722656 -8.585938 4.421875 -8.390625 C 4.128906 -8.203125 3.910156 -7.953125 3.765625 -7.640625 C 3.660156 -7.472656 3.507812 -7.390625 3.3125 -7.390625 L 1.734375 -7.390625 C 1.597656 -7.390625 1.492188 -7.425781 1.421875 -7.5 C 1.347656 -7.582031 1.3125 -7.6875 1.3125 -7.8125 C 1.320312 -8.03125 1.410156 -8.289062 1.578125 -8.59375 C 1.742188 -8.894531 1.992188 -9.1875 2.328125 -9.46875 C 2.660156 -9.75 3.097656 -9.988281 3.640625 -10.1875 C 4.179688 -10.394531 4.835938 -10.5 5.609375 -10.5 C 6.429688 -10.5 7.128906 -10.394531 7.703125 -10.1875 C 8.285156 -9.976562 8.742188 -9.703125 9.078125 -9.359375 C 9.421875 -9.015625 9.671875 -8.613281 9.828125 -8.15625 C 9.992188 -7.695312 10.078125 -7.207031 10.078125 -6.6875 L 10.078125 -0.46875 C 10.078125 -0.34375 10.03125 -0.234375 9.9375 -0.140625 C 9.84375 -0.046875 9.726562 0 9.59375 0 L 8 0 C 7.851562 0 7.734375 -0.046875 7.640625 -0.140625 C 7.554688 -0.234375 7.515625 -0.34375 7.515625 -0.46875 L 7.515625 -1.25 C 7.347656 -1.007812 7.117188 -0.773438 6.828125 -0.546875 C 6.535156 -0.328125 6.179688 -0.144531 5.765625 0 C 5.347656 0.132812 4.859375 0.203125 4.296875 0.203125 Z M 4.96875 -1.6875 C 5.425781 -1.6875 5.84375 -1.785156 6.21875 -1.984375 C 6.601562 -2.179688 6.898438 -2.488281 7.109375 -2.90625 C 7.328125 -3.320312 7.4375 -3.84375 7.4375 -4.46875 L 7.4375 -4.890625 L 5.46875 -4.578125 C 4.6875 -4.453125 4.101562 -4.257812 3.71875 -4 C 3.332031 -3.738281 3.140625 -3.414062 3.140625 -3.03125 C 3.140625 -2.738281 3.226562 -2.488281 3.40625 -2.28125 C 3.59375 -2.082031 3.820312 -1.929688 4.09375 -1.828125 C 4.375 -1.734375 4.664062 -1.6875 4.96875 -1.6875 Z M 4.96875 -1.6875 "/></g></g></g><g fill="#2b3445" fill-opacity="1"><g transform="translate(145.456358, 36.724673)"><g><path d="M 5.765625 0.203125 C 4.804688 0.203125 3.96875 0.0234375 3.25 -0.328125 C 2.53125 -0.691406 1.96875 -1.210938 1.5625 -1.890625 C 1.164062 -2.566406 0.945312 -3.390625 0.90625 -4.359375 C 0.894531 -4.554688 0.890625 -4.816406 0.890625 -5.140625 C 0.890625 -5.460938 0.894531 -5.726562 0.90625 -5.9375 C 0.945312 -6.90625 1.164062 -7.726562 1.5625 -8.40625 C 1.96875 -9.082031 2.53125 -9.597656 3.25 -9.953125 C 3.96875 -10.316406 4.804688 -10.5 5.765625 -10.5 C 6.609375 -10.5 7.328125 -10.378906 7.921875 -10.140625 C 8.515625 -9.910156 9 -9.613281 9.375 -9.25 C 9.757812 -8.882812 10.046875 -8.507812 10.234375 -8.125 C 10.429688 -7.738281 10.535156 -7.382812 10.546875 -7.0625 C 10.546875 -7.050781 10.546875 -7.035156 10.546875 -7.015625 C 10.546875 -6.890625 10.5 -6.785156 10.40625 -6.703125 C 10.320312 -6.628906 10.210938 -6.59375 10.078125 -6.59375 L 8.328125 -6.59375 C 8.203125 -6.59375 8.101562 -6.625 8.03125 -6.6875 C 7.957031 -6.757812 7.882812 -6.859375 7.8125 -6.984375 C 7.613281 -7.515625 7.351562 -7.890625 7.03125 -8.109375 C 6.707031 -8.328125 6.296875 -8.4375 5.796875 -8.4375 C 5.140625 -8.4375 4.613281 -8.226562 4.21875 -7.8125 C 3.832031 -7.394531 3.628906 -6.738281 3.609375 -5.84375 C 3.585938 -5.59375 3.578125 -5.351562 3.578125 -5.125 C 3.578125 -4.882812 3.585938 -4.660156 3.609375 -4.453125 C 3.628906 -3.546875 3.832031 -2.882812 4.21875 -2.46875 C 4.613281 -2.0625 5.140625 -1.859375 5.796875 -1.859375 C 6.316406 -1.859375 6.734375 -1.96875 7.046875 -2.1875 C 7.359375 -2.40625 7.613281 -2.78125 7.8125 -3.3125 C 7.882812 -3.4375 7.957031 -3.53125 8.03125 -3.59375 C 8.101562 -3.664062 8.203125 -3.703125 8.328125 -3.703125 L 10.078125 -3.703125 C 10.210938 -3.703125 10.320312 -3.660156 10.40625 -3.578125 C 10.5 -3.503906 10.546875 -3.40625 10.546875 -3.28125 C 10.546875 -3.257812 10.546875 -3.242188 10.546875 -3.234375 C 10.535156 -2.992188 10.472656 -2.722656 10.359375 -2.421875 C 10.253906 -2.128906 10.078125 -1.828125 9.828125 -1.515625 C 9.585938 -1.203125 9.28125 -0.914062 8.90625 -0.65625 C 8.539062 -0.40625 8.097656 -0.195312 7.578125 -0.03125 C 7.054688 0.125 6.453125 0.203125 5.765625 0.203125 Z M 5.765625 0.203125 "/></g></g></g><g fill="#2b3445" fill-opacity="1"><g transform="translate(156.758107, 36.724673)"><g/></g></g><g fill="#2b3445" fill-opacity="1"><g transform="translate(161.290689, 36.724673)"><g><path d="M 1.78125 0 C 1.644531 0 1.53125 -0.046875 1.4375 -0.140625 C 1.351562 -0.234375 1.3125 -0.34375 1.3125 -0.46875 L 1.3125 -9.8125 C 1.3125 -9.945312 1.351562 -10.0625 1.4375 -10.15625 C 1.53125 -10.25 1.644531 -10.296875 1.78125 -10.296875 L 3.40625 -10.296875 C 3.539062 -10.296875 3.648438 -10.25 3.734375 -10.15625 C 3.828125 -10.0625 3.875 -9.945312 3.875 -9.8125 L 3.875 -9 C 4.21875 -9.425781 4.65625 -9.78125 5.1875 -10.0625 C 5.726562 -10.351562 6.394531 -10.5 7.1875 -10.5 C 7.988281 -10.5 8.6875 -10.316406 9.28125 -9.953125 C 9.875 -9.585938 10.332031 -9.070312 10.65625 -8.40625 C 10.976562 -7.75 11.140625 -6.957031 11.140625 -6.03125 L 11.140625 -0.46875 C 11.140625 -0.34375 11.09375 -0.234375 11 -0.140625 C 10.914062 -0.046875 10.804688 0 10.671875 0 L 8.921875 0 C 8.796875 0 8.6875 -0.046875 8.59375 -0.140625 C 8.5 -0.234375 8.453125 -0.34375 8.453125 -0.46875 L 8.453125 -5.921875 C 8.453125 -6.679688 8.265625 -7.28125 7.890625 -7.71875 C 7.515625 -8.15625 6.96875 -8.375 6.25 -8.375 C 5.5625 -8.375 5.015625 -8.15625 4.609375 -7.71875 C 4.203125 -7.28125 4 -6.679688 4 -5.921875 L 4 -0.46875 C 4 -0.34375 3.953125 -0.234375 3.859375 -0.140625 C 3.765625 -0.046875 3.65625 0 3.53125 0 Z M 1.78125 0 "/></g></g></g><g fill="#2b3445" fill-opacity="1"><g transform="translate(173.641473, 36.724673)"><g><path d="M 5.953125 4.359375 C 4.992188 4.359375 4.203125 4.234375 3.578125 3.984375 C 2.960938 3.734375 2.472656 3.425781 2.109375 3.0625 C 1.753906 2.707031 1.5 2.351562 1.34375 2 C 1.195312 1.65625 1.117188 1.382812 1.109375 1.1875 C 1.109375 1.175781 1.109375 1.160156 1.109375 1.140625 C 1.109375 1.023438 1.15625 0.921875 1.25 0.828125 C 1.34375 0.734375 1.453125 0.6875 1.578125 0.6875 L 3.3125 0.6875 C 3.4375 0.6875 3.535156 0.71875 3.609375 0.78125 C 3.691406 0.84375 3.765625 0.953125 3.828125 1.109375 C 3.898438 1.273438 4 1.457031 4.125 1.65625 C 4.257812 1.851562 4.460938 2.019531 4.734375 2.15625 C 5.003906 2.300781 5.378906 2.375 5.859375 2.375 C 6.359375 2.375 6.78125 2.300781 7.125 2.15625 C 7.46875 2.007812 7.726562 1.765625 7.90625 1.421875 C 8.082031 1.078125 8.171875 0.601562 8.171875 0 L 8.171875 -1.34375 C 7.859375 -0.957031 7.453125 -0.644531 6.953125 -0.40625 C 6.460938 -0.175781 5.851562 -0.0625 5.125 -0.0625 C 4.425781 -0.0625 3.816406 -0.175781 3.296875 -0.40625 C 2.773438 -0.632812 2.34375 -0.957031 2 -1.375 C 1.65625 -1.789062 1.394531 -2.28125 1.21875 -2.84375 C 1.039062 -3.414062 0.9375 -4.046875 0.90625 -4.734375 C 0.90625 -4.921875 0.90625 -5.097656 0.90625 -5.265625 C 0.90625 -5.453125 0.90625 -5.628906 0.90625 -5.796875 C 0.9375 -6.460938 1.039062 -7.078125 1.21875 -7.640625 C 1.394531 -8.210938 1.65625 -8.710938 2 -9.140625 C 2.34375 -9.566406 2.773438 -9.898438 3.296875 -10.140625 C 3.816406 -10.378906 4.425781 -10.5 5.125 -10.5 C 5.875 -10.5 6.503906 -10.351562 7.015625 -10.0625 C 7.535156 -9.78125 7.960938 -9.425781 8.296875 -9 L 8.296875 -9.796875 C 8.296875 -9.941406 8.34375 -10.0625 8.4375 -10.15625 C 8.53125 -10.25 8.640625 -10.296875 8.765625 -10.296875 L 10.375 -10.296875 C 10.507812 -10.296875 10.617188 -10.25 10.703125 -10.15625 C 10.796875 -10.0625 10.84375 -9.941406 10.84375 -9.796875 L 10.875 -0.25 C 10.875 0.695312 10.691406 1.515625 10.328125 2.203125 C 9.972656 2.890625 9.4375 3.421875 8.71875 3.796875 C 8 4.171875 7.078125 4.359375 5.953125 4.359375 Z M 5.859375 -2.15625 C 6.398438 -2.15625 6.832031 -2.273438 7.15625 -2.515625 C 7.488281 -2.753906 7.734375 -3.0625 7.890625 -3.4375 C 8.054688 -3.820312 8.148438 -4.210938 8.171875 -4.609375 C 8.191406 -4.785156 8.203125 -5.003906 8.203125 -5.265625 C 8.203125 -5.523438 8.191406 -5.738281 8.171875 -5.90625 C 8.148438 -6.3125 8.054688 -6.703125 7.890625 -7.078125 C 7.734375 -7.453125 7.488281 -7.757812 7.15625 -8 C 6.832031 -8.25 6.398438 -8.375 5.859375 -8.375 C 5.316406 -8.375 4.878906 -8.25 4.546875 -8 C 4.222656 -7.757812 3.988281 -7.441406 3.84375 -7.046875 C 3.707031 -6.648438 3.628906 -6.210938 3.609375 -5.734375 C 3.585938 -5.578125 3.578125 -5.421875 3.578125 -5.265625 C 3.578125 -5.109375 3.585938 -4.941406 3.609375 -4.765625 C 3.628906 -4.304688 3.707031 -3.875 3.84375 -3.46875 C 3.988281 -3.070312 4.222656 -2.753906 4.546875 -2.515625 C 4.878906 -2.273438 5.316406 -2.15625 5.859375 -2.15625 Z M 5.859375 -2.15625 "/></g></g></g><g fill="#2b3445" fill-opacity="1"><g transform="translate(185.833905, 36.724673)"><g><path d="M 1.796875 0 C 1.671875 0 1.5625 -0.046875 1.46875 -0.140625 C 1.375 -0.234375 1.328125 -0.34375 1.328125 -0.46875 L 1.328125 -13.578125 C 1.328125 -13.710938 1.375 -13.828125 1.46875 -13.921875 C 1.5625 -14.015625 1.671875 -14.0625 1.796875 -14.0625 L 3.5625 -14.0625 C 3.707031 -14.0625 3.820312 -14.015625 3.90625 -13.921875 C 3.988281 -13.828125 4.03125 -13.710938 4.03125 -13.578125 L 4.03125 -9.0625 C 4.394531 -9.488281 4.832031 -9.832031 5.34375 -10.09375 C 5.863281 -10.363281 6.5 -10.5 7.25 -10.5 C 8.050781 -10.5 8.75 -10.316406 9.34375 -9.953125 C 9.945312 -9.585938 10.414062 -9.070312 10.75 -8.40625 C 11.082031 -7.75 11.25 -6.957031 11.25 -6.03125 L 11.25 -0.46875 C 11.25 -0.34375 11.203125 -0.234375 11.109375 -0.140625 C 11.015625 -0.046875 10.898438 0 10.765625 0 L 8.984375 0 C 8.859375 0 8.75 -0.046875 8.65625 -0.140625 C 8.5625 -0.234375 8.515625 -0.34375 8.515625 -0.46875 L 8.515625 -5.921875 C 8.515625 -6.679688 8.328125 -7.28125 7.953125 -7.71875 C 7.578125 -8.15625 7.03125 -8.375 6.3125 -8.375 C 5.625 -8.375 5.070312 -8.15625 4.65625 -7.71875 C 4.238281 -7.28125 4.03125 -6.679688 4.03125 -5.921875 L 4.03125 -0.46875 C 4.03125 -0.34375 3.988281 -0.234375 3.90625 -0.140625 C 3.820312 -0.046875 3.707031 0 3.5625 0 Z M 1.796875 0 "/></g></g></g><g fill="#2b3445" fill-opacity="1"><g transform="translate(198.283646, 36.724673)"><g><path d="M 1.703125 -12.078125 C 1.566406 -12.078125 1.453125 -12.125 1.359375 -12.21875 C 1.273438 -12.3125 1.234375 -12.421875 1.234375 -12.546875 L 1.234375 -13.984375 C 1.234375 -14.109375 1.273438 -14.21875 1.359375 -14.3125 C 1.453125 -14.40625 1.566406 -14.453125 1.703125 -14.453125 L 3.5 -14.453125 C 3.644531 -14.453125 3.765625 -14.40625 3.859375 -14.3125 C 3.953125 -14.21875 4 -14.109375 4 -13.984375 L 4 -12.546875 C 4 -12.421875 3.953125 -12.3125 3.859375 -12.21875 C 3.765625 -12.125 3.644531 -12.078125 3.5 -12.078125 Z M 1.78125 0 C 1.644531 0 1.53125 -0.046875 1.4375 -0.140625 C 1.351562 -0.234375 1.3125 -0.34375 1.3125 -0.46875 L 1.3125 -9.8125 C 1.3125 -9.945312 1.351562 -10.0625 1.4375 -10.15625 C 1.53125 -10.25 1.644531 -10.296875 1.78125 -10.296875 L 3.421875 -10.296875 C 3.566406 -10.296875 3.679688 -10.25 3.765625 -10.15625 C 3.859375 -10.0625 3.90625 -9.945312 3.90625 -9.8125 L 3.90625 -0.46875 C 3.90625 -0.34375 3.859375 -0.234375 3.765625 -0.140625 C 3.679688 -0.046875 3.566406 0 3.421875 0 Z M 1.78125 0 "/></g></g></g><g fill="#2b3445" fill-opacity="1"><g transform="translate(203.508972, 36.724673)"><g><path d="M 2.71875 -11.78125 C 2.519531 -11.78125 2.421875 -11.863281 2.421875 -12.03125 C 2.421875 -12.132812 2.476562 -12.25 2.59375 -12.375 L 4.515625 -14.359375 C 4.660156 -14.503906 4.78125 -14.59375 4.875 -14.625 C 4.976562 -14.65625 5.082031 -14.671875 5.1875 -14.671875 L 6.28125 -14.671875 C 6.394531 -14.671875 6.5 -14.65625 6.59375 -14.625 C 6.695312 -14.59375 6.816406 -14.503906 6.953125 -14.359375 L 8.875 -12.375 C 8.988281 -12.25 9.046875 -12.132812 9.046875 -12.03125 C 9.046875 -11.863281 8.945312 -11.78125 8.75 -11.78125 L 8.03125 -11.78125 C 7.925781 -11.78125 7.816406 -11.789062 7.703125 -11.8125 C 7.597656 -11.832031 7.5 -11.867188 7.40625 -11.921875 L 5.734375 -12.96875 L 4.0625 -11.921875 C 3.96875 -11.867188 3.863281 -11.832031 3.75 -11.8125 C 3.632812 -11.789062 3.53125 -11.78125 3.4375 -11.78125 Z M 5.734375 0.203125 C 4.273438 0.203125 3.113281 -0.21875 2.25 -1.0625 C 1.394531 -1.914062 0.9375 -3.117188 0.875 -4.671875 C 0.851562 -4.804688 0.84375 -4.972656 0.84375 -5.171875 C 0.84375 -5.378906 0.851562 -5.539062 0.875 -5.65625 C 0.925781 -6.664062 1.148438 -7.53125 1.546875 -8.25 C 1.953125 -8.96875 2.507812 -9.519531 3.21875 -9.90625 C 3.9375 -10.300781 4.773438 -10.5 5.734375 -10.5 C 6.804688 -10.5 7.703125 -10.273438 8.421875 -9.828125 C 9.148438 -9.390625 9.695312 -8.773438 10.0625 -7.984375 C 10.4375 -7.203125 10.625 -6.296875 10.625 -5.265625 L 10.625 -4.84375 C 10.625 -4.71875 10.578125 -4.609375 10.484375 -4.515625 C 10.398438 -4.421875 10.285156 -4.375 10.140625 -4.375 L 3.5625 -4.375 L 3.5625 -4.21875 C 3.570312 -3.757812 3.660156 -3.332031 3.828125 -2.9375 C 3.992188 -2.550781 4.238281 -2.238281 4.5625 -2 C 4.882812 -1.757812 5.269531 -1.640625 5.71875 -1.640625 C 6.09375 -1.640625 6.40625 -1.695312 6.65625 -1.8125 C 6.90625 -1.925781 7.109375 -2.054688 7.265625 -2.203125 C 7.421875 -2.347656 7.535156 -2.460938 7.609375 -2.546875 C 7.722656 -2.710938 7.816406 -2.8125 7.890625 -2.84375 C 7.960938 -2.875 8.070312 -2.890625 8.21875 -2.890625 L 9.921875 -2.890625 C 10.046875 -2.890625 10.148438 -2.851562 10.234375 -2.78125 C 10.316406 -2.707031 10.359375 -2.617188 10.359375 -2.515625 C 10.359375 -2.503906 10.359375 -2.488281 10.359375 -2.46875 C 10.335938 -2.257812 10.222656 -2.003906 10.015625 -1.703125 C 9.816406 -1.398438 9.523438 -1.101562 9.140625 -0.8125 C 8.765625 -0.519531 8.285156 -0.273438 7.703125 -0.078125 C 7.128906 0.109375 6.472656 0.203125 5.734375 0.203125 Z M 3.5625 -6.03125 L 7.9375 -6.03125 L 7.9375 -6.09375 C 7.9375 -6.613281 7.847656 -7.066406 7.671875 -7.453125 C 7.503906 -7.835938 7.253906 -8.140625 6.921875 -8.359375 C 6.597656 -8.578125 6.203125 -8.6875 5.734375 -8.6875 C 5.273438 -8.6875 4.878906 -8.578125 4.546875 -8.359375 C 4.222656 -8.140625 3.976562 -7.835938 3.8125 -7.453125 C 3.644531 -7.066406 3.5625 -6.613281 3.5625 -6.09375 Z M 4.8125 4.203125 C 4.675781 4.203125 4.5625 4.15625 4.46875 4.0625 C 4.375 3.96875 4.328125 3.851562 4.328125 3.71875 L 4.328125 2.296875 C 4.328125 2.160156 4.375 2.046875 4.46875 1.953125 C 4.5625 1.867188 4.675781 1.828125 4.8125 1.828125 L 6.609375 1.828125 C 6.753906 1.828125 6.875 1.867188 6.96875 1.953125 C 7.0625 2.046875 7.109375 2.160156 7.109375 2.296875 L 7.109375 3.71875 C 7.109375 3.851562 7.0625 3.96875 6.96875 4.0625 C 6.875 4.15625 6.753906 4.203125 6.609375 4.203125 Z M 4.8125 4.203125 "/></g></g></g><g fill="#2b3445" fill-opacity="1"><g transform="translate(214.929489, 36.724673)"><g><path d="M 1.78125 0 C 1.644531 0 1.53125 -0.046875 1.4375 -0.140625 C 1.351562 -0.234375 1.3125 -0.34375 1.3125 -0.46875 L 1.3125 -9.8125 C 1.3125 -9.945312 1.351562 -10.0625 1.4375 -10.15625 C 1.53125 -10.25 1.644531 -10.296875 1.78125 -10.296875 L 3.328125 -10.296875 C 3.460938 -10.296875 3.570312 -10.25 3.65625 -10.15625 C 3.75 -10.0625 3.796875 -9.945312 3.796875 -9.8125 L 3.796875 -9.140625 C 4.078125 -9.515625 4.453125 -9.828125 4.921875 -10.078125 C 5.390625 -10.335938 5.945312 -10.476562 6.59375 -10.5 C 6.613281 -10.5 6.644531 -10.5 6.6875 -10.5 C 8.144531 -10.5 9.160156 -9.910156 9.734375 -8.734375 C 10.046875 -9.253906 10.488281 -9.675781 11.0625 -10 C 11.632812 -10.332031 12.269531 -10.5 12.96875 -10.5 C 13.65625 -10.5 14.273438 -10.335938 14.828125 -10.015625 C 15.390625 -9.703125 15.832031 -9.222656 16.15625 -8.578125 C 16.488281 -7.941406 16.65625 -7.132812 16.65625 -6.15625 L 16.65625 -0.46875 C 16.65625 -0.34375 16.609375 -0.234375 16.515625 -0.140625 C 16.421875 -0.046875 16.304688 0 16.171875 0 L 14.546875 0 C 14.421875 0 14.3125 -0.046875 14.21875 -0.140625 C 14.125 -0.234375 14.078125 -0.34375 14.078125 -0.46875 L 14.078125 -6 C 14.078125 -6.59375 13.988281 -7.0625 13.8125 -7.40625 C 13.644531 -7.757812 13.414062 -8.007812 13.125 -8.15625 C 12.832031 -8.300781 12.507812 -8.375 12.15625 -8.375 C 11.863281 -8.375 11.570312 -8.300781 11.28125 -8.15625 C 10.988281 -8.007812 10.75 -7.757812 10.5625 -7.40625 C 10.382812 -7.0625 10.296875 -6.59375 10.296875 -6 L 10.296875 -0.46875 C 10.296875 -0.34375 10.25 -0.234375 10.15625 -0.140625 C 10.0625 -0.046875 9.945312 0 9.8125 0 L 8.203125 0 C 8.066406 0 7.953125 -0.046875 7.859375 -0.140625 C 7.765625 -0.234375 7.71875 -0.34375 7.71875 -0.46875 L 7.71875 -6 C 7.71875 -6.59375 7.625 -7.0625 7.4375 -7.40625 C 7.257812 -7.757812 7.023438 -8.007812 6.734375 -8.15625 C 6.441406 -8.300781 6.128906 -8.375 5.796875 -8.375 C 5.492188 -8.375 5.195312 -8.296875 4.90625 -8.140625 C 4.613281 -7.992188 4.375 -7.75 4.1875 -7.40625 C 4.007812 -7.0625 3.921875 -6.59375 3.921875 -6 L 3.921875 -0.46875 C 3.921875 -0.34375 3.875 -0.234375 3.78125 -0.140625 C 3.6875 -0.046875 3.570312 0 3.4375 0 Z M 1.78125 0 "/></g></g></g></svg>